<?xml version="1.0" encoding="utf-8"?>
<!-- Generator: Adobe Illustrator 21.0.0, SVG Export Plug-In . SVG Version: 6.00 Build 0)  -->
<svg version="1.1" id="Layer_1" xmlns="http://www.w3.org/2000/svg" xmlns:xlink="http://www.w3.org/1999/xlink" x="0px" y="0px"
	 width="210px" height="35px" viewBox="0 0 210 35" style="enable-background:new 0 0 210 35;" xml:space="preserve">
<style type="text/css">
	.st0{fill:url(#SVGID_1_);}
	.st1{fill:url(#SVGID_2_);}
	.st2{fill:url(#SVGID_3_);}
	.st3{fill:url(#SVGID_4_);}
	.st4{fill:url(#SVGID_5_);}
	.st5{fill:url(#SVGID_6_);}
	.st6{fill:#863274;}
</style>
<g>
	<linearGradient id="SVGID_1_" gradientUnits="userSpaceOnUse" x1="17.5" y1="0" x2="17.5" y2="35">
		<stop  offset="0" style="stop-color:#FFFFFF"/>
		<stop  offset="1" style="stop-color:#DECAC4"/>
	</linearGradient>
	<path class="st0" d="M17.5,0C27.2,0,35,7.8,35,17.5S27.2,35,17.5,35S0,27.2,0,17.5S7.9,0,17.5,0z"/>
	
		<linearGradient id="SVGID_2_" gradientUnits="userSpaceOnUse" x1="52.5" y1="80" x2="52.5" y2="115" gradientTransform="matrix(1 0 0 1 0 -80)">
		<stop  offset="0" style="stop-color:#FFFFFF"/>
		<stop  offset="1" style="stop-color:#DECAC4"/>
	</linearGradient>
	<path class="st1" d="M52.5,0C62.2,0,70,7.8,70,17.5S62.2,35,52.5,35S35,27.2,35,17.5S42.9,0,52.5,0z"/>
	
		<linearGradient id="SVGID_3_" gradientUnits="userSpaceOnUse" x1="87.5" y1="80" x2="87.5" y2="115" gradientTransform="matrix(1 0 0 1 0 -80)">
		<stop  offset="0" style="stop-color:#FFFFFF"/>
		<stop  offset="1" style="stop-color:#DECAC4"/>
	</linearGradient>
	<path class="st2" d="M87.5,0C97.2,0,105,7.8,105,17.5S97.2,35,87.5,35S70,27.2,70,17.5S77.9,0,87.5,0z"/>
	
		<linearGradient id="SVGID_4_" gradientUnits="userSpaceOnUse" x1="122.5" y1="80" x2="122.5" y2="115" gradientTransform="matrix(1 0 0 1 0 -80)">
		<stop  offset="0" style="stop-color:#FFFFFF"/>
		<stop  offset="1" style="stop-color:#DECAC4"/>
	</linearGradient>
	<path class="st3" d="M122.5,0c9.7,0,17.5,7.8,17.5,17.5S132.2,35,122.5,35S105,27.2,105,17.5S112.9,0,122.5,0z"/>
	
		<linearGradient id="SVGID_5_" gradientUnits="userSpaceOnUse" x1="157.5" y1="80" x2="157.5" y2="115" gradientTransform="matrix(1 0 0 1 0 -80)">
		<stop  offset="0" style="stop-color:#FFFFFF"/>
		<stop  offset="1" style="stop-color:#DECAC4"/>
	</linearGradient>
	<path class="st4" d="M157.5,0c9.7,0,17.5,7.8,17.5,17.5S167.2,35,157.5,35S140,27.2,140,17.5S147.9,0,157.5,0z"/>
	
		<linearGradient id="SVGID_6_" gradientUnits="userSpaceOnUse" x1="192.5" y1="80" x2="192.5" y2="115" gradientTransform="matrix(1 0 0 1 0 -80)">
		<stop  offset="0" style="stop-color:#FFFFFF"/>
		<stop  offset="1" style="stop-color:#DECAC4"/>
	</linearGradient>
	<path class="st5" d="M192.5,0c9.7,0,17.5,7.8,17.5,17.5S202.2,35,192.5,35S175,27.2,175,17.5S182.9,0,192.5,0z"/>
	<path class="st6" d="M20.8,17.9h-2.4v8.8h-3.5v-8.8h-1.8v-3h1.8V13c0-2.5,1-3.9,3.8-3.9h2.4v3h-1.5c-1.1,0-1.2,0.4-1.2,1.2v1.5H21
		L20.8,17.9L20.8,17.9z"/>
	<path class="st6" d="M57.6,27.4h-11c-2.2,0-4.1-1.8-4.1-4.1V11.7c0-2.3,1.8-4.1,4.1-4.1h10.9c2.2,0,4.1,1.8,4.1,4.1v11.6
		C61.6,25.6,59.8,27.4,57.6,27.4L57.6,27.4z M60,11.7c0-1.4-1.1-2.5-2.5-2.5H46.6c-1.4,0-2.5,1.1-2.5,2.5v11.6
		c0,1.4,1.1,2.5,2.5,2.5h10.9c1.4,0,2.5-1.1,2.5-2.5L60,11.7L60,11.7z M52.1,22.7c-2.8,0-5-2.3-5-5.2s2.2-5.2,5-5.2s5,2.3,5,5.2
		S54.9,22.7,52.1,22.7L52.1,22.7z M52.1,14.1c-1.8,0-3.3,1.6-3.3,3.4c0,1.9,1.5,3.4,3.3,3.4c1.8,0,3.3-1.6,3.3-3.4
		C55.4,15.6,53.9,14.1,52.1,14.1L52.1,14.1z M57.4,13.3c-0.6,0-1.2-0.6-1.2-1.2c0-0.6,0.6-1.2,1.2-1.2c0.6,0,1.2,0.6,1.2,1.2
		C58.6,12.7,58.1,13.3,57.4,13.3L57.4,13.3z"/>
	<path class="st6" d="M95.1,13.7c0,0.2,0,0.3,0,0.5c0,5-3.7,10.9-10.7,10.9c-2.1,0-4.1-0.6-5.7-1.8c0.3,0,0.6,0.1,0.9,0.1
		c1.8,0,3.3-0.6,4.7-1.7c-1.7,0-3-1.1-3.5-2.6c0.2,0.1,0.5,0.1,0.7,0.1c0.3,0,0.6-0.1,1-0.2c-1.7-0.3-3-1.9-3-3.7c0,0,0,0,0-0.1
		c0.5,0.3,1.1,0.5,1.7,0.5c-1-0.7-1.7-1.8-1.7-3.2c0-0.7,0.2-1.4,0.5-1.9c1.8,2.3,4.6,3.8,7.7,4c-0.1-0.2-0.1-0.6-0.1-0.9
		c0-2.1,1.7-3.8,3.7-3.8c1.1,0,2.1,0.5,2.7,1.2c0.9-0.2,1.7-0.5,2.4-1c-0.2,0.9-0.9,1.7-1.7,2.1c0.8-0.1,1.5-0.3,2.1-0.6
		C96.5,12.5,95.9,13.2,95.1,13.7L95.1,13.7z"/>
	<path class="st6" d="M133.2,22c-0.5-0.6-1.9,0.9-4.6-4.1c0,0-0.2-0.4,0.2-0.9c0.4-0.4,1-0.6,1.4-0.8c0.4-0.2,1.1-0.5,0.9-1
		c0,0-0.2-0.7-1.4-0.3c0,0-0.9,0.5-1.4-0.2c0,0,1.7-6.6-3.8-7.9c-0.1,0-0.2-0.1-0.3-0.1c-0.9-0.1-1.8-0.2-2.8,0.1
		c-0.1,0-0.2,0.1-0.2,0.1c-5.1,1.4-3.5,7.9-3.5,7.9c-0.5,0.6-1.4,0.2-1.4,0.2c-1.1-0.5-1.4,0.3-1.4,0.3c-0.2,0.6,0.6,0.9,0.9,1
		c0.4,0.2,1,0.3,1.4,0.8c0.4,0.4,0.2,0.9,0.2,0.9c-2.7,5-4.1,3.6-4.6,4.1c-0.5,0.5,0.6,1,1,1.1c0.1,0,0.1,0,0.2,0
		c1-0.2,1.5,0.6,2,1.4c0.1,0.1,0.3,0.2,0.5,0.2c0.1,0,0.2,0,0.2,0c0.4,0,0.8-0.1,1.1-0.1c0.1,0,0.2,0,0.2,0c0.2,0,0.3,0,0.5,0.1
		c0.2,0,0.3,0.1,0.4,0.1c0.9,0.3,1.6,1.1,2.5,1.5c0.2,0.1,0.2,0.1,0.4,0.2c0.6,0.2,1.7,0.2,2.4,0c0.2,0,0.2-0.1,0.4-0.2
		c1-0.4,1.7-1.2,2.5-1.5c0.2-0.1,0.2-0.1,0.4-0.1c0.2,0,0.3-0.1,0.5-0.1c0.1,0,0.2,0,0.2,0c0.3,0,0.7,0.1,1.1,0.1c0.1,0,0.2,0,0.2,0
		c0.2,0,0.3-0.1,0.5-0.2c0.4-0.9,0.9-1.6,2-1.4c0,0,0.1,0,0.2,0C132.5,23.1,133.6,22.5,133.2,22"/>
	<path class="st6" d="M157.6,27.1c-1.6,0-3.2-0.4-4.6-1.1l-5.4,1.4l1.6-5.1c-0.9-1.5-1.4-3.2-1.4-5c0-5.4,4.4-9.8,9.9-9.8
		c5.4,0,9.9,4.4,9.9,9.8S163.1,27.1,157.6,27.1L157.6,27.1z M157.6,9.1c-4.5,0-8.2,3.7-8.2,8.2c0,1.8,0.6,3.4,1.5,4.8l-1,3l3.2-0.9
		h0.1c1.3,0.8,2.8,1.3,4.4,1.3c4.5,0,8.3-3.7,8.3-8.2S162.2,9.1,157.6,9.1L157.6,9.1z M162.6,19.9c-0.1,0.4-0.2,1.8-2.2,2
		c0,0-2,0.1-4.1-1.6c-1.4-1-2.3-2.4-2.9-3.3c0-0.1-0.1-0.2-0.1-0.2c-0.2-0.6-0.5-1.2-0.5-1.8c0-0.1,0-0.2,0-0.2
		c0.1-0.6,0.3-1.4,1.3-1.9c0,0,0.8-0.1,1,0l0.9,2c0,0,0.3,0.5,0,0.8s-0.6,0.6-0.6,0.6s-0.2,0.2,0,0.6c0.2,0.4,1.4,2,3.2,2.7
		c0,0,0.6,0.2,0.8-0.3l0.6-0.7c0,0,0.2-0.2,0.6,0c0.5,0.2,1.8,0.9,1.8,0.9S162.7,19.5,162.6,19.9L162.6,19.9z"/>
	<path class="st6" d="M181.7,18v2.7h-1V18c-0.1-0.5-0.3-1.2-0.6-2.1c-0.2-0.6-0.4-1.3-0.6-1.8h1l0.7,2.6l0.7-2.6h1L181.7,18
		L181.7,18z M185.3,20.3c-0.2,0.3-0.6,0.5-1,0.5c-0.5,0-0.8-0.2-1-0.5c-0.2-0.2-0.3-0.6-0.3-1.2v-1.8c0-0.6,0.1-1,0.3-1.2
		c0.2-0.3,0.6-0.5,1-0.5c0.5,0,0.8,0.2,1,0.5c0.2,0.2,0.3,0.6,0.3,1.2v1.8C185.6,19.6,185.5,20,185.3,20.3L185.3,20.3z M184.7,17.2
		c0-0.5-0.2-0.7-0.4-0.7c-0.3,0-0.4,0.2-0.4,0.7v2.1c0,0.5,0.2,0.7,0.4,0.7c0.3,0,0.4-0.2,0.4-0.7V17.2L184.7,17.2z M188,20.7v-0.6
		c-0.4,0.4-0.7,0.6-1,0.6c-0.3,0-0.5-0.2-0.6-0.4c-0.1-0.2-0.1-0.4-0.1-0.7v-4h1v3.7c0,0.2,0,0.3,0,0.3c0,0.2,0.1,0.2,0.2,0.2
		s0.4-0.2,0.6-0.4v-3.8h0.9v5H188L188,20.7z M198.9,20c-0.2,0-0.3-0.1-0.5-0.2v-3c0.2-0.2,0.3-0.2,0.5-0.2c0.2,0,0.4,0.2,0.4,0.6
		v2.1C199.3,19.7,199.3,20,198.9,20L198.9,20z M201.9,17.7v-0.5c0-0.5,0.2-0.7,0.5-0.7c0.3,0,0.5,0.2,0.5,0.7v0.5H201.9L201.9,17.7z
		 M204.6,21c-0.2,0.8-0.8,1.4-1.6,1.4c-1.8,0.2-3.7,0.2-5.6,0.2c-1.9,0-3.7,0-5.6-0.2c-0.8-0.1-1.4-0.6-1.6-1.4
		c-0.2-1.1-0.2-2.4-0.2-3.5c0-1.2,0-2.4,0.2-3.5c0.2-0.8,0.8-1.4,1.6-1.4c1.8-0.2,3.7-0.2,5.6-0.2c1.9,0,3.7,0,5.6,0.2
		c0.8,0.1,1.4,0.6,1.6,1.4c0.2,1.1,0.2,2.4,0.2,3.5C204.8,18.7,204.8,19.9,204.6,21L204.6,21z M194.1,14.1h-3.2v1h1v5.6h1V15h1.1
		V14.1L194.1,14.1z M196.8,15.7h-0.9v3.7c-0.2,0.3-0.4,0.4-0.6,0.4s-0.2-0.1-0.2-0.2c0,0,0-0.2,0-0.3v-3.7h-0.9v3.9
		c0,0.3,0,0.6,0.1,0.7c0.1,0.2,0.3,0.4,0.6,0.4c0.3,0,0.6-0.2,1-0.6v0.6h0.9V15.7L196.8,15.7z M200.3,17.3c0-0.5,0-0.8-0.1-1
		c-0.1-0.4-0.4-0.6-0.7-0.6s-0.6,0.2-1,0.6v-2.1h-0.9v6.5h0.9v-0.5c0.3,0.4,0.6,0.6,1,0.6c0.4,0,0.6-0.2,0.7-0.6
		c0.1-0.2,0.1-0.6,0.1-1V17.3L200.3,17.3z M203.7,19h-1c0,0.3,0,0.6,0,0.6c-0.1,0.2-0.2,0.4-0.4,0.4c-0.3,0-0.5-0.2-0.5-0.7v-0.9
		h1.8v-1c0-0.6-0.1-1-0.3-1.2c-0.2-0.3-0.6-0.5-1-0.5c-0.5,0-0.8,0.2-1.1,0.5c-0.2,0.2-0.3,0.6-0.3,1.2v1.7c0,0.6,0.1,1,0.3,1.2
		c0.2,0.3,0.6,0.5,1.1,0.5c0.5,0,0.9-0.2,1.1-0.6c0.1-0.2,0.2-0.3,0.2-0.6C203.7,19.6,203.7,19.3,203.7,19L203.7,19L203.7,19z"/>
</g>
</svg>
