<svg xmlns="http://www.w3.org/2000/svg" viewBox="0 0 125 62" width="125" height="62">
	<defs>
		<clipPath clipPathUnits="userSpaceOnUse" id="cp1">
			<path d="M-9 -7L133 -7L133 78L-9 78Z" />
		</clipPath>
	</defs>
	<style>
		tspan { white-space:pre }
		.shp0 { fill: #56412b } 
		.shp1 { fill: #ff561d } 
	</style>
	<g id="Page 1" clip-path="url(#cp1)">
		<path id="Path 1" class="shp0" d="M56.98,27.63c-0.1,-0.91 -0.71,-1.31 -1.58,-1.31c-0.72,0 -1.43,0.26 -1.43,1.09c0,0.79 1.02,0.9 2.05,1.14c1.02,0.23 2.04,0.59 2.04,1.84c0,1.36 -1.33,1.9 -2.5,1.9c-1.43,0 -2.64,-0.7 -2.64,-2.25h0.8c0,1.07 0.89,1.54 1.86,1.54c0.77,0 1.62,-0.24 1.62,-1.16c0,-0.88 -1.02,-1.03 -2.04,-1.25c-1.02,-0.22 -2.05,-0.52 -2.05,-1.69c0,-1.3 1.15,-1.87 2.32,-1.87c1.31,0 2.3,0.62 2.35,2.02zM59.26,25.76h0.85v2.75h3.36v-2.75h0.85v6.39h-0.85v-2.93h-3.36v2.93h-0.85zM68.6,25.61c2.03,0 3.06,1.61 3.06,3.35c0,1.74 -1.03,3.35 -3.06,3.35c-2.03,0 -3.06,-1.61 -3.06,-3.35c0,-1.74 1.03,-3.35 3.06,-3.35zM68.6,31.58c1.56,0 2.21,-1.34 2.21,-2.63c0,-1.29 -0.65,-2.63 -2.21,-2.63c-1.56,0 -2.21,1.34 -2.21,2.63c0,1.29 0.65,2.63 2.21,2.63zM72.87,25.76h2.8c1.27,0 1.96,0.71 1.96,1.89c0,1.18 -0.69,1.9 -1.96,1.89h-1.95v2.61h-0.85zM73.72,28.82h1.66c0.96,0.01 1.39,-0.41 1.39,-1.17c0,-0.76 -0.44,-1.17 -1.39,-1.17h-1.66zM78.85,25.76h2.8c1.27,0 1.96,0.71 1.96,1.89c0,1.18 -0.69,1.9 -1.96,1.89h-1.95v2.61h-0.85zM79.7,28.82h1.66c0.96,0.01 1.39,-0.41 1.39,-1.17c0,-0.76 -0.44,-1.17 -1.39,-1.17h-1.66zM84.86,25.76h0.85v6.39h-0.85zM87.31,25.76h0.9l3.37,5.18h0.02v-5.18h0.81v6.39h-0.93l-3.34,-5.13h-0.02v5.13h-0.81zM98.74,31.35c-0.49,0.67 -1.3,0.95 -2.05,0.95c-1.91,0 -3.04,-1.56 -3.04,-3.22c0,-1.86 1.02,-3.47 3.04,-3.47c1.4,0 2.51,0.63 2.75,2.12h-0.85c-0.17,-0.97 -0.95,-1.4 -1.9,-1.4c-1.55,0 -2.19,1.34 -2.19,2.71c0,1.33 0.77,2.55 2.19,2.55c1.31,0 2.1,-0.92 2.05,-2.08h-2.04v-0.72h2.8v3.36h-0.54zM20.14,37.34v1.66c-2.38,-1.26 -4.72,-1.9 -7.01,-1.9c-2.44,0 -4.48,0.83 -6.12,2.49c-1.64,1.66 -2.46,3.73 -2.46,6.22c0,2.51 0.82,4.58 2.47,6.2c1.65,1.62 3.76,2.43 6.32,2.43c2.14,0 4.47,-0.67 6.99,-2.01v1.57c-2.33,1.23 -4.65,1.84 -6.96,1.84c-2.99,0 -5.48,-0.96 -7.48,-2.88c-1.99,-1.92 -2.99,-4.31 -2.99,-7.17c0,-2.88 1.02,-5.28 3.05,-7.22c2.04,-1.93 4.46,-2.9 7.27,-2.9c2.21,0 4.52,0.55 6.91,1.65zM24.47,55.59h-1.52v-19.65h1.52zM28.69,35.94h6.87c3.48,0 6.13,0.91 7.96,2.74c1.83,1.83 2.75,4.19 2.75,7.09c0,2.84 -0.91,5.19 -2.72,7.04c-1.81,1.85 -4.39,2.78 -7.72,2.78h-7.14zM30.21,37.21v17.12h5.54c2.54,0 4.65,-0.78 6.34,-2.34c1.69,-1.56 2.54,-3.63 2.54,-6.21c0,-2.52 -0.83,-4.58 -2.5,-6.17c-1.67,-1.59 -3.83,-2.39 -6.48,-2.39zM56.32,35.8l9.08,19.79h-1.59l-3.11,-6.79h-9.61l-3.1,6.79h-1.59l9.08,-19.79zM60.12,47.53l-4.23,-9.25l-4.22,9.25zM67.49,35.94h6.87c3.48,0 6.13,0.91 7.96,2.74c1.83,1.83 2.75,4.19 2.75,7.09c0,2.84 -0.91,5.19 -2.72,7.04c-1.81,1.85 -4.39,2.78 -7.72,2.78h-7.14zM69.01,37.21v17.12h5.54c2.54,0 4.65,-0.78 6.34,-2.34c1.69,-1.56 2.54,-3.63 2.54,-6.21c0,-2.52 -0.83,-4.58 -2.5,-6.17c-1.67,-1.59 -3.83,-2.39 -6.48,-2.39zM99.27,35.94v1.27h-9.2v7.86h8.96v1.28h-8.96v7.97h9.43v1.27h-10.94v-19.65z" />
		<path id="Path 2" class="shp1" d="M24.47,13.34h-1.52v19.65h1.52zM102.38,46.49h19.65v-1.52h-19.65z" />
	</g>
</svg>